<svg width="36" height="30" viewBox="0 0 36 30" fill="none" xmlns="http://www.w3.org/2000/svg">
<path d="M18.3457 0.290594C18.0623 0.295608 17.7923 0.403262 17.5938 0.590416C17.3954 0.77757 17.2842 1.02928 17.2843 1.29144V20.3156C17.2843 20.5811 17.3983 20.8356 17.6012 21.0233C17.8041 21.211 18.0794 21.3165 18.3664 21.3165C18.6534 21.3165 18.9286 21.211 19.1315 21.0233C19.3345 20.8356 19.4485 20.5811 19.4485 20.3156V1.29144C19.4485 1.15849 19.4199 1.02688 19.3643 0.90428C19.3087 0.781679 19.2273 0.670547 19.1248 0.577374C19.0222 0.484202 18.9007 0.410854 18.7672 0.361616C18.6336 0.312377 18.4909 0.288233 18.3471 0.290594H18.3457ZM34.7192 5.98938C34.5779 5.99315 34.4388 6.02241 34.3097 6.07552L25.0231 9.90934C24.8331 9.98873 24.6719 10.1171 24.5588 10.2791C24.4458 10.4411 24.3856 10.6299 24.3856 10.8227C24.3856 11.0155 24.4458 11.2042 24.5588 11.3662C24.6719 11.5282 24.8331 11.6566 25.0231 11.736L34.3097 15.5821C34.4492 15.6402 34.6003 15.6705 34.7532 15.671C35.0006 15.6703 35.2403 15.5912 35.4323 15.4469C35.6243 15.3025 35.757 15.1017 35.8083 14.8779C35.8597 14.654 35.8265 14.4207 35.7144 14.2167C35.6023 14.0127 35.418 13.8504 35.1923 13.7568L28.1172 10.824L35.1923 7.90219C35.4535 7.79341 35.6576 7.59349 35.76 7.34606C35.8625 7.09863 35.855 6.82375 35.7392 6.58141C35.6514 6.40059 35.5077 6.24787 35.3262 6.1425C35.1446 6.03714 34.9334 5.98386 34.7192 5.98938V5.98938ZM1.45769 12.8695C1.2909 12.8667 1.12566 12.8996 0.974893 12.9656C0.824125 13.0317 0.691908 13.1291 0.588571 13.2502C0.485233 13.3713 0.413574 13.5129 0.379191 13.6639C0.344807 13.8149 0.348632 13.9711 0.390364 14.1205C2.95668 23.2498 11.8841 29.6268 22.0961 29.6268C22.3831 29.6268 22.6583 29.5213 22.8613 29.3336C23.0642 29.1459 23.1782 28.8913 23.1782 28.6259C23.1782 28.3605 23.0642 28.1059 22.8613 27.9182C22.6583 27.7305 22.3831 27.6251 22.0961 27.6251C17.6121 27.6267 13.2542 26.2526 9.70513 23.718C6.15603 21.1834 3.61623 17.6315 2.48362 13.6187C2.42407 13.4077 2.29163 13.2205 2.10644 13.0855C1.92125 12.9505 1.69344 12.8751 1.45769 12.8708V12.8695Z" fill="#CBD2D9"/>
</svg>
